<svg width="30" height="32" viewBox="0 0 30 32" fill="" xmlns="http://www.w3.org/2000/svg">
<path d="M26.0926 0H12.1791C11.3739 0 10.603 0.320911 10.0344 0.891203L1.76361 9.201C1.19896 9.76818 0.882324 10.5355 0.882324 11.3355V28.9744C0.882324 30.6453 2.2375 32 3.9084 32H26.0926C27.7634 32 29.1177 30.6453 29.1177 28.9744V3.02556C29.1177 1.35478 27.7634 0 26.0926 0ZM26.9842 28.9744C26.9842 29.4667 26.5842 29.8666 26.0925 29.8666H3.9084C3.41566 29.8666 3.01551 29.4667 3.01551 28.9744V11.937H11.524C12.3072 11.937 12.9448 11.2995 12.9448 10.5156V2.13338H26.0926C26.5842 2.13338 26.9843 2.53327 26.9843 3.02556V28.9744H26.9842Z" fill="black"/>
<path d="M20.9822 16.4865H9.01973C8.13649 16.4865 7.41971 17.2027 7.41971 18.0865C7.41971 18.9703 8.13649 19.6865 9.01973 19.6865H20.9822C21.8657 19.6865 22.5822 18.9703 22.5822 18.0865C22.5822 17.2027 21.8656 16.4865 20.9822 16.4865Z" fill="black"/>
<path d="M20.9822 11.1531H16.4865C15.603 11.1531 14.8865 11.8693 14.8865 12.753C14.8865 13.6369 15.603 14.353 16.4865 14.353H20.9822C21.8657 14.353 22.5822 13.6369 22.5822 12.753C22.5821 11.8693 21.8656 11.1531 20.9822 11.1531Z" fill="black"/>
<path d="M20.9822 5.81989H16.4865C15.603 5.81989 14.8865 6.53583 14.8865 7.4199C14.8865 8.30372 15.603 9.01986 16.4865 9.01986H20.9822C21.8657 9.01986 22.5822 8.30366 22.5822 7.4199C22.5821 6.53589 21.8656 5.81989 20.9822 5.81989Z" fill="black"/>
<path d="M20.9822 22.5098H9.01973C8.13649 22.5098 7.41971 23.226 7.41971 24.1098C7.41971 24.9936 8.13649 25.7098 9.01973 25.7098H20.9822C21.8657 25.7098 22.5822 24.9936 22.5822 24.1098C22.5822 23.226 21.8656 22.5098 20.9822 22.5098Z" fill="black"/>
</svg>
