<svg width="32" height="27" viewBox="0 0 32 27" fill="none" xmlns="http://www.w3.org/2000/svg">
<g clip-path="url(#clip0_1_22)">
<path d="M12.5058 13.7181H11.6362C11.5859 13.7181 11.5377 13.7382 11.5022 13.7738L10.9852 14.2932C10.9499 14.3287 10.9301 14.3766 10.9301 14.4266V15.529C10.9301 15.6335 11.0148 15.7181 11.1193 15.7181H12.5058C12.6102 15.7181 12.6949 15.6335 12.6949 15.529V13.9072C12.6949 13.8028 12.6102 13.7181 12.5058 13.7181ZM12.5615 15.529C12.5615 15.5598 12.5365 15.5848 12.5058 15.5848H11.1193C11.0885 15.5848 11.0635 15.5598 11.0635 15.529V14.4642H11.5953C11.6442 14.4642 11.684 14.4244 11.684 14.3754V13.8515H12.5058C12.5365 13.8515 12.5615 13.8765 12.5615 13.9072V15.529H12.5615Z" fill="white"/>
<path d="M12.1864 14.7485H11.4387C11.3835 14.7485 11.3387 14.7933 11.3387 14.8485C11.3387 14.9038 11.3835 14.9485 11.4387 14.9485H12.1864C12.2416 14.9485 12.2864 14.9038 12.2864 14.8485C12.2864 14.7933 12.2416 14.7485 12.1864 14.7485Z" fill="white"/>
<path d="M12.1864 14.4152H11.9054C11.8502 14.4152 11.8054 14.46 11.8054 14.5152C11.8054 14.5705 11.8502 14.6152 11.9054 14.6152H12.1864C12.2416 14.6152 12.2864 14.5705 12.2864 14.5152C12.2864 14.46 12.2416 14.4152 12.1864 14.4152Z" fill="white"/>
<path d="M12.1864 14.0819H11.9054C11.8502 14.0819 11.8054 14.1267 11.8054 14.1819C11.8054 14.2371 11.8502 14.2819 11.9054 14.2819H12.1864C12.2416 14.2819 12.2864 14.2371 12.2864 14.1819C12.2864 14.1267 12.2416 14.0819 12.1864 14.0819Z" fill="white"/>
<path d="M12.1864 15.125H11.4387C11.3835 15.125 11.3387 15.1698 11.3387 15.225C11.3387 15.2802 11.3835 15.325 11.4387 15.325H12.1864C12.2416 15.325 12.2864 15.2802 12.2864 15.225C12.2864 15.1698 12.2416 15.125 12.1864 15.125Z" fill="white"/>
</g>
<path d="M11.4559 5.37975H3.44062C3.02268 5.37975 2.64056 5.14363 2.45368 4.76975L1.65518 3.17288L2.45368 1.576C2.64056 1.20213 3.02262 0.966003 3.44062 0.966003H11.456C11.8739 0.966003 12.2561 1.20213 12.4429 1.576L13.2414 3.17288L12.4429 4.76975C12.256 5.14363 11.8739 5.37975 11.4559 5.37975Z" fill="#FFC36E"/>
<path d="M11.4559 5.37975H3.44062C3.02268 5.37975 2.64056 5.14363 2.45368 4.76975L1.65518 3.17288L2.45368 1.576C2.64056 1.20213 3.02262 0.966003 3.44062 0.966003H11.456C11.8739 0.966003 12.2561 1.20213 12.4429 1.576L13.2414 3.17288L12.4429 4.76975C12.256 5.14363 11.8739 5.37975 11.4559 5.37975Z" fill="#FFC36E"/>
<path d="M30.3448 2.06946H1.65517C1.35049 2.06946 1.10342 2.31652 1.10342 2.62121V5.37983H30.8965V2.62115C30.8965 2.31646 30.6495 2.06946 30.3448 2.06946Z" fill="#EFF2FA"/>
<path d="M30.8965 4.27631H1.10342V5.37974H30.8965V4.27631Z" fill="#E1E6F2"/>
<path d="M30.8966 3.17285H13.5824C13.3734 3.17285 13.1824 3.29091 13.0889 3.47779L12.4429 4.76973C12.2561 5.1436 11.8739 5.37973 11.456 5.37973H3.44062C3.02269 5.37973 2.64056 5.1436 2.45369 4.76973L1.80763 3.47779C1.71419 3.29091 1.52313 3.17285 1.31419 3.17285H1.10344C0.494 3.17285 0 3.66685 0 4.27629V25.2418C0 25.8512 0.494 26.3452 1.10344 26.3452H30.8966C31.506 26.3452 32 25.8512 32 25.2418V4.27629C32 3.66685 31.506 3.17285 30.8966 3.17285Z" fill="#FFD782"/>
<path d="M30.3448 25.2418H1.65517C1.35049 25.2418 1.10342 24.9947 1.10342 24.6901C1.10342 24.3854 1.35049 24.1383 1.65517 24.1383H30.3448C30.6495 24.1383 30.8965 24.3854 30.8965 24.6901C30.8965 24.9948 30.6495 25.2418 30.3448 25.2418Z" fill="#FFC36E"/>
<path d="M20.4138 11.4488H28.6897C28.9944 11.4488 29.2414 11.2017 29.2414 10.897V6.48321C29.2414 6.17852 28.9944 5.93146 28.6897 5.93146H20.4138C20.1091 5.93146 19.8621 6.17852 19.8621 6.48321V10.897C19.8621 11.2017 20.1091 11.4488 20.4138 11.4488Z" fill="#EFF2FA"/>
<path d="M27.5862 8.13835H21.5173C21.2126 8.13835 20.9655 7.89129 20.9655 7.5866C20.9655 7.28191 21.2126 7.03485 21.5173 7.03485H27.5862C27.8909 7.03485 28.138 7.28191 28.138 7.5866C28.138 7.89135 27.8909 8.13835 27.5862 8.13835Z" fill="#C7CFE2"/>
<path d="M27.5862 10.3453H21.5173C21.2126 10.3453 20.9655 10.0982 20.9655 9.79351C20.9655 9.48882 21.2126 9.24176 21.5173 9.24176H27.5862C27.8909 9.24176 28.138 9.48882 28.138 9.79351C28.138 10.0983 27.8909 10.3453 27.5862 10.3453Z" fill="#D7DEED"/>
<defs>
<clipPath id="clip0_1_22">
<rect width="2" height="2" fill="white" transform="translate(10.8125 13.7181)"/>
</clipPath>
</defs>
</svg>
